<svg width="16" height="16" viewBox="0 0 16 16" fill="none" xmlns="http://www.w3.org/2000/svg">
<path d="M5.99968 11.3333L2.66634 14.6666M9.99968 11.3333L13.333 14.6666M7.99968 1.33331V2.66665M7.99968 14.6666V11.3333M3.46634 11.3333H12.533C13.2797 11.3333 13.6531 11.3333 13.9383 11.188C14.1892 11.0602 14.3932 10.8562 14.521 10.6053C14.6663 10.3201 14.6663 9.94672 14.6663 9.19998V4.79998C14.6663 4.05324 14.6663 3.67987 14.521 3.39466C14.3932 3.14378 14.1892 2.9398 13.9383 2.81197C13.6531 2.66665 13.2797 2.66665 12.533 2.66665H3.46634C2.7196 2.66665 2.34624 2.66665 2.06102 2.81197C1.81014 2.9398 1.60616 3.14378 1.47833 3.39466C1.33301 3.67987 1.33301 4.05324 1.33301 4.79998V9.19998C1.33301 9.94672 1.33301 10.3201 1.47833 10.6053C1.60616 10.8562 1.81014 11.0602 2.06102 11.188C2.34624 11.3333 2.7196 11.3333 3.46634 11.3333Z" stroke="#90A0B7" stroke-linecap="round" stroke-linejoin="round"/>
</svg>
