<svg width="14" height="14" viewBox="0 0 14 14" fill="none" xmlns="http://www.w3.org/2000/svg">
<path d="M2.33367 12.7268C2.68518 12.8333 3.15995 12.8333 3.96699 12.8333H10.0337C10.8407 12.8333 11.3155 12.8333 11.667 12.7268M2.33367 12.7268C2.2583 12.704 2.1886 12.6763 2.12251 12.6426C1.79323 12.4748 1.52551 12.2071 1.35773 11.8778C1.16699 11.5035 1.16699 11.0134 1.16699 10.0333V3.96666C1.16699 2.98656 1.16699 2.49652 1.35773 2.12217C1.52551 1.79289 1.79323 1.52517 2.12251 1.3574C2.49685 1.16666 2.9869 1.16666 3.96699 1.16666H10.0337C11.0138 1.16666 11.5038 1.16666 11.8781 1.3574C12.2074 1.52517 12.4751 1.79289 12.6429 2.12217C12.8337 2.49652 12.8337 2.98656 12.8337 3.96666V10.0333C12.8337 11.0134 12.8337 11.5035 12.6429 11.8778C12.4751 12.2071 12.2074 12.4748 11.8781 12.6426C11.812 12.6763 11.7423 12.704 11.667 12.7268M2.33367 12.7268C2.33386 12.2547 2.3367 12.0049 2.37849 11.7948C2.56261 10.8692 3.28617 10.1456 4.21178 9.96149C4.43718 9.91666 4.70823 9.91666 5.25033 9.91666H8.75033C9.29242 9.91666 9.56347 9.91666 9.78887 9.96149C10.7145 10.1456 11.438 10.8692 11.6222 11.7948C11.664 12.0049 11.6668 12.2547 11.667 12.7268M9.33366 5.54166C9.33366 6.83032 8.28899 7.87499 7.00033 7.87499C5.71166 7.87499 4.66699 6.83032 4.66699 5.54166C4.66699 4.25299 5.71166 3.20832 7.00033 3.20832C8.28899 3.20832 9.33366 4.25299 9.33366 5.54166Z" stroke="#90A0B7" stroke-linecap="round" stroke-linejoin="round"/>
</svg>
