<svg width="28" height="28" viewBox="0 0 28 28" fill="none" xmlns="http://www.w3.org/2000/svg">
<path d="M17.9084 11.0665C16.2684 13.4597 0.550487 14.4814 0.000183565 0.766339C-0.00807504 0.560513 0.264501 0.468719 0.379926 0.639687C1.62101 2.47797 4.38515 5.53518 9.27541 4.75566C9.4312 4.73082 9.51918 4.52812 9.46393 4.381C9.1686 3.5946 8.97884 1.72194 10.1386 0.554498C10.253 0.439341 10.4457 0.519158 10.4802 0.677435C10.7001 1.68687 11.6498 3.77011 15.2144 4.04344C16.4961 4.14173 18.0135 4.50692 19.6262 5.53826C19.6947 5.58208 19.7923 5.50657 19.7751 5.42734C19.5501 4.39051 20.3453 2.95605 21.2242 2.57448C21.3424 2.52315 21.4611 2.62079 21.4683 2.749C21.5699 4.56006 22.7596 5.99834 24.0299 7.53415C26.2604 10.2307 28.7396 13.2279 26.0143 19.0714C25.8822 19.3546 25.5243 19.4568 25.2517 19.3024C21.7171 17.2993 18.9632 18.2737 17.7454 18.9392C16.6825 19.5201 15.1216 21.5374 15.6165 23.9377C15.7445 24.5589 15.5319 25.2407 14.9691 25.5377L11.5326 27.3518C10.8851 27.6935 10.0715 27.4275 9.8674 26.7268C8.92961 23.508 10.0382 20.1181 12.3185 17.8062C15.084 15.0023 20.4119 13.9561 23.7059 15.758C23.8434 15.8332 24.0169 15.7384 24.0158 15.5822C23.9852 11.345 20.4315 10.2719 18.666 9.73873C18.3903 9.65545 18.1582 9.58535 17.9899 9.51843C17.5413 9.34001 17.0796 9.15218 16.7352 8.74979C16.6412 8.63992 16.4796 8.649 16.4906 8.79293C16.5361 9.38857 17.353 10.4116 17.8525 10.8192C17.9293 10.8819 17.9644 10.9848 17.9084 11.0665Z" fill="url(#paint0_linear_869_4619)"/>
<path d="M22.2262 13.0575C22.5394 13.3161 22.8758 13.7236 22.9507 14.2475C22.9625 14.3303 22.8634 14.3888 22.7871 14.3536C22.5369 14.2382 22.0988 14.0796 21.6548 13.9493C21.295 13.8437 21.1672 13.2865 21.4722 13.0692C21.7017 12.9056 22.0089 12.8781 22.2262 13.0575Z" fill="url(#paint1_linear_869_4619)"/>
<defs>
<linearGradient id="paint0_linear_869_4619" x1="18.6474" y1="-11.7344" x2="56.5909" y2="32.3119" gradientUnits="userSpaceOnUse">
<stop stop-color="#EDA65B"/>
<stop offset="1" stop-color="#FA5A42"/>
</linearGradient>
<linearGradient id="paint1_linear_869_4619" x1="18.6474" y1="-11.7344" x2="56.5909" y2="32.3119" gradientUnits="userSpaceOnUse">
<stop stop-color="#EDA65B"/>
<stop offset="1" stop-color="#FA5A42"/>
</linearGradient>
</defs>
</svg>
